<svg id="Livello_1" data-name="Livello 1" xmlns="http://www.w3.org/2000/svg" viewBox="0 0 125 155">
  <defs>
    <style>
      .cls-1 {
        fill: #c8d300;
      }

      .cls-2 {
        fill: #1a213c;
      }
    </style>
  </defs>
  <title>loghi</title>
  <g id="Layer10">
    <g id="Layer11">
      <path id="Layer12" class="cls-1" d="M125,81.4a250.7,250.7,0,0,1-32.9,52.7c-18.7,2.9-36.8,2.4-56.9.5l13.1-21a220.8,220.8,0,0,0,31.5-.2A234,234,0,0,0,99.5,81.3,191.4,191.4,0,0,0,84.2,56L97.3,35.1C108,49.4,117.9,64.6,125,81.4Z"/>
      <path id="Layer13" class="cls-1" d="M40.8,98.8,27.7,119.7C16.4,104.7,7.3,90.2,0,73.5A242,242,0,0,1,32.9,20.7a258.3,258.3,0,0,1,56.9-.5l-13.1,21a220.8,220.8,0,0,0-31.5.2A219.1,219.1,0,0,0,25.5,73.5,221.3,221.3,0,0,0,40.8,98.8Z"/>
    </g>
    <circle id="Layer14" class="cls-2" cx="62.5" cy="77.4" r="17"/>
  </g>
</svg>
