<svg id="Livello_1" data-name="Livello 1" xmlns="http://www.w3.org/2000/svg" viewBox="0 0 125 155">
  <defs>
    <style>
      .cls-1 {
        fill: #d2121a;
      }

      .cls-2 {
        fill: #fff;
      }
    </style>
  </defs>
  <title>loghi</title>
  <g>
    <rect class="cls-1" y="27.5" width="125" height="99.96"/>
    <path class="cls-2" d="M103,80.2c0,.2-.2.4-.7.6l-.2.3v.2c0,.2,0,.2-.2.4l-.4.2H101v-.2l-.4.2v.2c0,.3,0,.3-.2.5l-.4.2h-.5v-.2c-1.5.8-3.4,1.5-5.2,2.3v.3c0,.2,0,.2-.2.4l-.4.2h-.4l-.3-.2-.6.2.2.2c0,.2,0,.2-.2.5l-.4.2h-.5l-.2-.2a1.6,1.6,0,0,1-2.4-.9c-.2-.7-.2-1.9-.4-2.6a.7.7,0,0,0-.6-.4c-8.2-1.5-10.8.2-16.2-1.1-1.8-.4-2.6-1.9-4.6-1.9-4.3-.3-5.6,0-10.5-.3a3.1,3.1,0,0,0-.3.9H39.5l2.6,1.3.9,7.3-.9.3c.2,1.5.2,3.4.4,5.1s.2,3.3.2,4.3a4.3,4.3,0,0,1-.4,2,2.4,2.4,0,0,1-1.3,1.3l-1.5,1.1-2.2,1c0,.3.3.5.3.7-10.2,5-22.9,6.5-27,14.5a1.3,1.3,0,0,1-2.2-.7v-1.5H8.2c-.2,0-.2-.2-.2-.4V116a.7.7,0,0,1,.2-.4h.2c0-.4.2-.9.2-1.3H8.4c-.2,0-.2-.2,0-.4l.2-.5a.3.3,0,0,1,.5-.2h.2c.6-1.7,2.1-2.3,2.8-4.1h0c-.2,0-.2-.2,0-.4l-.2-.4c0-.3.2-.5.4-.3h.2c0-.2.2-.4.5-.6h-.3c-.2,0-.2-.2,0-.4l.3-.5c.2-.2.2-.2.4-.2h0l.2-.2a2.2,2.2,0,0,1,2.2,0,4.6,4.6,0,0,0,5.6-.4C25.3,102,30,97.3,33.5,97a39.5,39.5,0,0,1-2.8-7.9l-1.1-.3c-.7-1.3-2.2-7.3-2.6-12.1,0,0-.4-4.9,0-6.6l-.9.4c-.6-1.5,1.5-14.9,3.5-18.8l3.2-1.3-8.6-.6c-3.5,3-7.1,6.2-9.3,7.9a7.3,7.3,0,0,0-.9,2.2,8,8,0,0,1-1.9,1.5c-1.3.9-4.1,1.5-4.8.4s-.2-.4,0-.4,2.2-1.3,2.8-2.4a4.3,4.3,0,0,1-2.8.9c-.4,0-.6-.9,0-1.1a6.7,6.7,0,0,0,3.1-1.7,3,3,0,0,1,2.8-1.7S18.8,48,22,44.6a3.6,3.6,0,0,1,2.6-.7l.2-1.1s11.3-1.2,16.7.5c-.3-3.3,1.2-7.4,6.2-7.4,2.6,0,6.3,2.4,6.9,5,.2.9-.4,1.5-.6,2.6s.2,3.5,0,3.9-.7.4-1.1,1.1l-1.1,1.9-.6,1.5-3.5-.2c-1.3,2.8-3.9,8.4-4.7,14h0c2.8.2,15.3,2,15.3,2l.2,1.1A38,38,0,0,1,68,71.3c.9.3,3.5-.2,5,.7l.4-.4c5.6,1.7,10.4,4.7,15.8,6l3.4.9c2,.4,3.3.4,4.3.6a30.5,30.5,0,0,0,3.9.2c.7-.2,2-.4,2.2.9m8.2-17.1a7,7,0,1,0,6.9,7A7,7,0,0,0,111.2,63.1Z"/>
  </g>
</svg>
