<svg id="Livello_1" data-name="Livello 1" xmlns="http://www.w3.org/2000/svg" viewBox="0 0 125 155">
  <defs>
    <style>
      .cls-1 {
        fill: none;
      }

      .cls-2 {
        fill: #3c235a;
      }
    </style>
  </defs>
  <title>loghi</title>
  <g>
    <path class="cls-1" d="M98.1,83.8V75.1a32.2,32.2,0,0,1-8.3-4.5c-8.6,1.2-19.1,9.7-19.1,9.7l7.4,13.5c6.8,1,16.8-7.4,20-10Z"/>
    <path class="cls-1" d="M96.4,92.9s-9,7.6-14.6,7.7l4.6,8.4c3.1-.6,8.4-2.9,10.6-5.4a30.9,30.9,0,0,1,1.1,9.8c3.1-1.7,7.2-6.4,8.7-13.7h0a17,17,0,0,0-3.6-7Z"/>
    <path class="cls-1" d="M109.6,70.9a40,40,0,0,1-6.3,4.3V84c2.5,2.7,4.9,4.9,6.7,8.8,3.4-5.9,2.7-14.7-.4-21.9Z"/>
    <path class="cls-2" d="M33.3,29.7A71,71,0,0,1,68,20.8a73.6,73.6,0,0,1,18.9,2.5c.6-5.6,1.9-12.7,4.5-17.8A50.7,50.7,0,0,0,81.2,15.7C81,14.5,80.5,6,80,0,77.6,2.6,68,13,66.3,14.7L57,0s-4.4,12.5-5.7,16.4L34.5,5.1c.8,5.3,2.2,13.8,2.6,15.5a62.6,62.6,0,0,0-12.4-7.7C28.5,17.4,31.5,24.2,33.3,29.7Z"/>
    <polygon class="cls-2" points="121.1 120.4 121.1 120.4 121.1 120.4 121.1 120.4"/>
    <path class="cls-2" d="M110.8,59l-.5,4.1L105,57.5a7,7,0,0,0,2-1.7,7.7,7.7,0,0,0-2.6-5,8,8,0,0,0-4.5,2.9,19.2,19.2,0,0,0-6.2-3.5,29.8,29.8,0,0,1,4.4,6.4c3.2,2.6,7.2,5.5,10.1,9.1-2.3-2.5-13.1-3.1-18.1-.5a126.3,126.3,0,0,0-9.5-9.5c-.9-3.4,2.2-6.3,2.2-6.3a9.4,9.4,0,0,0-6.2,2.8,34.6,34.6,0,0,0-10.2-4.8,20.4,20.4,0,0,0-10.7,5.3,51.2,51.2,0,0,0,5.2,2.7c3.5,1.3,6.8.9,8.9.9a27.1,27.1,0,0,1,4.2.5,75.2,75.2,0,0,1,10.5,10c-9.4-3.6-19.4.6-26.4-2.8s-7.5-10.3-7.5-10.3L45,52.9a23.5,23.5,0,0,1,10.3-7.1l-3.2-2.6c3.7-3,10.3-6.9,20.6-8.4,0,0,4.6,1.7,14,8.3,1.6-2.1,2-6.5,2-6.5,4.7,1.6,14.6,8.5,18.6,12.8-2.1-4.8-3.7-7.9-4.2-13-2.4-2.3-8.2-7.1-20.3-10a17.7,17.7,0,0,1,1.7,7.2c-2.3-2.8-7-7.2-10.3-8.5s-4.1-.3-6.2-.3a70.9,70.9,0,0,0-31.2,7.3h0c5,.3,8.3,4.3,9.4,7.6-3.8-2.9-9.7-4.2-13.2-.5s-3.1,10.8.2,16.6c-7.9-4-7.9-14.2-5.2-18.4h0A66.8,66.8,0,0,0,6.7,62.1h0L14,63.2C5.7,72.4,0,88.7,0,96.4l11.6-3.5c-2,6.8-2.7,29.7,4.3,41.1,0,0,9.2-6.1,19.5-21.7,4.5,14,2.4,25.7.1,37.2,18.7,10.3,40.5,4.5,53.1-4.4l2.3,8.7c15-9.5,23.1-23.3,24.7-39.4l5.5,6C129.7,95.7,123,76,110.8,59ZM78.1,93.8,70.7,80.3s10.5-8.5,19.1-9.7a32.2,32.2,0,0,0,8.3,4.5v8.7h0C94.9,86.4,84.9,94.8,78.1,93.8Zm28.7,5.9c-1.5,7.3-5.6,12-8.7,13.7a30.9,30.9,0,0,0-1.1-9.8c-2.2,2.5-7.5,4.8-10.6,5.4l-4.6-8.4c5.6-.1,14.6-7.7,14.6-7.7l6.8-.2a17,17,0,0,1,3.6,7Zm3.2-6.9c-1.8-3.9-4.2-6.1-6.7-8.8V75.2a40,40,0,0,0,6.3-4.3h0C112.7,78.1,113.4,86.9,110,92.8Z"/>
  </g>
</svg>
